<svg xmlns="http://www.w3.org/2000/svg" xmlns:xlink="http://www.w3.org/1999/xlink" class="size-10" zoomAndPan="magnify"
    viewBox="0 0 375 374.999991" preserveAspectRatio="xMidYMid meet" version="1.0">
    <defs>
        <g />
    </defs>
    <path fill="#000000"
        d="M 367.820312 250.773438 C 363.890625 250.773438 360.699219 247.582031 360.699219 243.648438 L 360.699219 25.042969 L 239.792969 146.011719 C 237.007812 148.789062 232.5 148.789062 229.71875 146.011719 C 226.9375 143.226562 226.9375 138.714844 229.71875 135.929688 L 362.785156 2.800781 C 364.820312 0.757812 367.886719 0.148438 370.550781 1.253906 C 373.207031 2.359375 374.945312 4.957031 374.945312 7.835938 L 374.945312 243.648438 C 374.945312 247.582031 371.757812 250.773438 367.820312 250.773438 Z M 7.964844 375 C 4.03125 375 0.84375 371.8125 0.84375 367.875 L 0.84375 119.421875 C 0.84375 116.539062 2.578125 113.9375 5.238281 112.835938 C 7.902344 111.734375 10.964844 112.34375 13.003906 114.378906 L 137.167969 238.609375 C 139.949219 241.390625 139.949219 245.902344 137.167969 248.683594 C 134.386719 251.46875 129.875 251.46875 127.09375 248.683594 L 15.089844 136.625 L 15.089844 367.875 C 15.089844 371.8125 11.898438 375 7.964844 375 Z M 367.820312 375 C 366 375 364.175781 374.304688 362.785156 372.914062 L 2.929688 12.875 C 0.148438 10.09375 0.148438 5.582031 2.929688 2.800781 C 5.710938 0.015625 10.21875 0.015625 13.003906 2.800781 L 372.859375 362.835938 C 375.640625 365.617188 375.640625 370.128906 372.859375 372.914062 C 371.464844 374.304688 369.644531 375 367.820312 375 "
        fill-opacity="1" fill-rule="nonzero" />
    <g fill="#000000" fill-opacity="1">
        <g transform="translate(128.623567, 288.233472)">
            <g>
                <path
                    d="M 2.039062 0 C 2.144531 0 2.199219 -0.0546875 2.199219 -0.160156 L 2.199219 -2.046875 L 3.566406 -2.046875 C 4.703125 -2.046875 5.398438 -2.824219 5.398438 -4.070312 C 5.398438 -5.097656 4.9375 -6 3.246094 -6 L 0.753906 -6 C 0.648438 -6 0.59375 -5.945312 0.59375 -5.839844 L 0.59375 -0.160156 C 0.59375 -0.0546875 0.648438 0 0.753906 0 Z M 2.199219 -4.640625 L 2.96875 -4.640625 C 3.289062 -4.640625 3.800781 -4.640625 3.800781 -4.054688 C 3.800781 -3.40625 3.191406 -3.40625 2.96875 -3.40625 L 2.199219 -3.40625 Z M 2.199219 -4.640625 " />
            </g>
        </g>
    </g>
    <g fill="#000000" fill-opacity="1">
        <g transform="translate(140.711823, 288.233472)">
            <g>
                <path
                    d="M 2.03125 0 C 2.136719 0 2.191406 -0.0546875 2.191406 -0.160156 L 2.191406 -2.023438 L 4.289062 -2.023438 L 4.289062 -0.160156 C 4.289062 -0.0546875 4.34375 0 4.449219 0 L 5.726562 0 C 5.832031 0 5.886719 -0.0546875 5.886719 -0.160156 L 5.886719 -5.839844 C 5.886719 -5.945312 5.832031 -6 5.726562 -6 L 4.449219 -6 C 4.34375 -6 4.289062 -5.945312 4.289062 -5.839844 L 4.289062 -3.382812 L 2.191406 -3.382812 L 2.191406 -5.839844 C 2.191406 -5.945312 2.136719 -6 2.03125 -6 L 0.753906 -6 C 0.648438 -6 0.59375 -5.945312 0.59375 -5.839844 L 0.59375 -0.160156 C 0.59375 -0.0546875 0.648438 0 0.753906 0 Z M 2.03125 0 " />
            </g>
        </g>
    </g>
    <g fill="#000000" fill-opacity="1">
        <g transform="translate(153.60091, 288.233472)">
            <g>
                <path
                    d="M 3.601562 0.160156 C 5.558594 0.160156 6.863281 -1.070312 6.863281 -3 C 6.863281 -4.929688 5.558594 -6.160156 3.601562 -6.160156 C 1.648438 -6.160156 0.351562 -4.929688 0.351562 -3 C 0.351562 -1.070312 1.648438 0.160156 3.601562 0.160156 Z M 3.601562 -1.28125 C 2.609375 -1.28125 1.953125 -1.9375 1.953125 -3 C 1.953125 -4.0625 2.609375 -4.71875 3.601562 -4.71875 C 4.601562 -4.71875 5.265625 -4.0625 5.265625 -3 C 5.265625 -1.9375 4.601562 -1.28125 3.601562 -1.28125 Z M 3.601562 -1.28125 " />
            </g>
        </g>
    </g>
    <g fill="#000000" fill-opacity="1">
        <g transform="translate(167.22442, 288.233472)">
            <g>
                <path
                    d="M 2.976562 0 C 3.078125 0 3.136719 -0.0546875 3.136719 -0.160156 L 3.136719 -4.640625 L 4.34375 -4.640625 C 4.449219 -4.640625 4.503906 -4.695312 4.503906 -4.800781 L 4.503906 -5.839844 C 4.503906 -5.945312 4.449219 -6 4.34375 -6 L 0.320312 -6 C 0.214844 -6 0.160156 -5.945312 0.160156 -5.839844 L 0.160156 -4.800781 C 0.160156 -4.695312 0.214844 -4.640625 0.320312 -4.640625 L 1.527344 -4.640625 L 1.527344 -0.160156 C 1.527344 -0.0546875 1.585938 0 1.6875 0 Z M 2.976562 0 " />
            </g>
        </g>
    </g>
    <g fill="#000000" fill-opacity="1">
        <g transform="translate(178.296987, 288.233472)">
            <g>
                <path
                    d="M 3.601562 0.160156 C 5.558594 0.160156 6.863281 -1.070312 6.863281 -3 C 6.863281 -4.929688 5.558594 -6.160156 3.601562 -6.160156 C 1.648438 -6.160156 0.351562 -4.929688 0.351562 -3 C 0.351562 -1.070312 1.648438 0.160156 3.601562 0.160156 Z M 3.601562 -1.28125 C 2.609375 -1.28125 1.953125 -1.9375 1.953125 -3 C 1.953125 -4.0625 2.609375 -4.71875 3.601562 -4.71875 C 4.601562 -4.71875 5.265625 -4.0625 5.265625 -3 C 5.265625 -1.9375 4.601562 -1.28125 3.601562 -1.28125 Z M 3.601562 -1.28125 " />
            </g>
        </g>
    </g>
    <g fill="#000000" fill-opacity="1">
        <g transform="translate(191.920494, 288.233472)">
            <g>
                <path
                    d="M 3.601562 0.160156 C 4.769531 0.160156 5.710938 -0.273438 6.265625 -1.03125 C 6.304688 -1.078125 6.320312 -1.136719 6.320312 -1.207031 L 6.320312 -3.183594 C 6.320312 -3.289062 6.265625 -3.34375 6.160156 -3.34375 L 3.808594 -3.34375 C 3.703125 -3.34375 3.648438 -3.289062 3.648438 -3.183594 L 3.648438 -2.222656 C 3.648438 -2.121094 3.703125 -2.0625 3.808594 -2.0625 L 4.863281 -2.0625 L 4.863281 -1.734375 C 4.574219 -1.398438 4.136719 -1.199219 3.601562 -1.199219 C 2.609375 -1.199219 1.953125 -1.886719 1.953125 -3 C 1.953125 -4.0625 2.609375 -4.71875 3.601562 -4.71875 C 4.167969 -4.71875 4.625 -4.503906 4.921875 -4.144531 C 4.984375 -4.0625 5.054688 -4.046875 5.136719 -4.105469 L 6.191406 -4.808594 C 6.28125 -4.871094 6.296875 -4.945312 6.230469 -5.023438 C 5.65625 -5.734375 4.734375 -6.160156 3.601562 -6.160156 C 1.648438 -6.160156 0.351562 -4.929688 0.351562 -3 C 0.351562 -1.070312 1.648438 0.160156 3.601562 0.160156 Z M 3.601562 0.160156 " />
            </g>
        </g>
    </g>
    <g fill="#000000" fill-opacity="1">
        <g transform="translate(205.090848, 288.233472)">
            <g>
                <path
                    d="M 4.472656 -2.253906 C 5.0625 -2.5625 5.398438 -3.203125 5.398438 -4.070312 C 5.398438 -5.097656 4.9375 -6 3.246094 -6 L 0.753906 -6 C 0.648438 -6 0.59375 -5.945312 0.59375 -5.839844 L 0.59375 -0.160156 C 0.59375 -0.0546875 0.648438 0 0.753906 0 L 2.039062 0 C 2.144531 0 2.199219 -0.0546875 2.199219 -0.160156 L 2.199219 -2.046875 L 2.875 -2.046875 L 3.839844 -0.121094 C 3.878906 -0.0390625 3.9375 0 4.023438 0 L 5.480469 0 C 5.601562 0 5.648438 -0.078125 5.59375 -0.191406 Z M 2.96875 -4.640625 C 3.289062 -4.640625 3.800781 -4.640625 3.800781 -4.054688 C 3.800781 -3.40625 3.191406 -3.40625 2.96875 -3.40625 L 2.199219 -3.40625 L 2.199219 -4.640625 Z M 2.96875 -4.640625 " />
            </g>
        </g>
    </g>
    <g fill="#000000" fill-opacity="1">
        <g transform="translate(217.429118, 288.233472)">
            <g>
                <path
                    d="M 3.304688 -6 C 3.183594 -6.246094 2.992188 -6.246094 2.871094 -6 L 0.121094 -0.191406 C 0.0703125 -0.078125 0.121094 0 0.238281 0 L 1.648438 0 C 1.734375 0 1.800781 -0.046875 1.832031 -0.128906 L 2.027344 -0.632812 L 4.148438 -0.632812 L 4.34375 -0.128906 C 4.375 -0.046875 4.441406 0 4.527344 0 L 5.9375 0 C 6.054688 0 6.105469 -0.078125 6.054688 -0.191406 Z M 3.089844 -3.339844 L 3.679688 -1.832031 L 2.496094 -1.832031 Z M 3.089844 -3.339844 " />
            </g>
        </g>
    </g>
    <g fill="#000000" fill-opacity="1">
        <g transform="translate(230.013503, 288.233472)">
            <g>
                <path
                    d="M 2.039062 0 C 2.144531 0 2.199219 -0.0546875 2.199219 -0.160156 L 2.199219 -2.046875 L 3.566406 -2.046875 C 4.703125 -2.046875 5.398438 -2.824219 5.398438 -4.070312 C 5.398438 -5.097656 4.9375 -6 3.246094 -6 L 0.753906 -6 C 0.648438 -6 0.59375 -5.945312 0.59375 -5.839844 L 0.59375 -0.160156 C 0.59375 -0.0546875 0.648438 0 0.753906 0 Z M 2.199219 -4.640625 L 2.96875 -4.640625 C 3.289062 -4.640625 3.800781 -4.640625 3.800781 -4.054688 C 3.800781 -3.40625 3.191406 -3.40625 2.96875 -3.40625 L 2.199219 -3.40625 Z M 2.199219 -4.640625 " />
            </g>
        </g>
    </g>
    <g fill="#000000" fill-opacity="1">
        <g transform="translate(242.101763, 288.233472)">
            <g>
                <path
                    d="M 2.03125 0 C 2.136719 0 2.191406 -0.0546875 2.191406 -0.160156 L 2.191406 -2.023438 L 4.289062 -2.023438 L 4.289062 -0.160156 C 4.289062 -0.0546875 4.34375 0 4.449219 0 L 5.726562 0 C 5.832031 0 5.886719 -0.0546875 5.886719 -0.160156 L 5.886719 -5.839844 C 5.886719 -5.945312 5.832031 -6 5.726562 -6 L 4.449219 -6 C 4.34375 -6 4.289062 -5.945312 4.289062 -5.839844 L 4.289062 -3.382812 L 2.191406 -3.382812 L 2.191406 -5.839844 C 2.191406 -5.945312 2.136719 -6 2.03125 -6 L 0.753906 -6 C 0.648438 -6 0.59375 -5.945312 0.59375 -5.839844 L 0.59375 -0.160156 C 0.59375 -0.0546875 0.648438 0 0.753906 0 Z M 2.03125 0 " />
            </g>
        </g>
    </g>
    <g fill="#000000" fill-opacity="1">
        <g transform="translate(254.990855, 288.233472)">
            <g>
                <path
                    d="M 3.855469 0 C 3.960938 0 4.015625 -0.0546875 4.015625 -0.160156 L 4.015625 -2.296875 L 6.351562 -5.808594 C 6.425781 -5.910156 6.375 -6 6.246094 -6 L 4.695312 -6 C 4.609375 -6 4.542969 -5.960938 4.503906 -5.886719 L 3.222656 -3.734375 L 1.960938 -5.886719 C 1.921875 -5.960938 1.855469 -6 1.769531 -6 L 0.214844 -6 C 0.0898438 -6 0.0390625 -5.910156 0.113281 -5.808594 L 2.414062 -2.296875 L 2.414062 -0.160156 C 2.414062 -0.0546875 2.472656 0 2.574219 0 Z M 3.855469 0 " />
            </g>
        </g>
    </g>
</svg>