<svg width="44" height="22" viewBox="0 0 44 22" fill="none" xmlns="http://www.w3.org/2000/svg">
<path fill-rule="evenodd" clip-rule="evenodd" d="M41.9901 2.97457C33.6662 18.332 17.0382 24.5756 1.59451 15.9298C1.08039 15.6419 0.428418 15.8219 0.138259 16.3257C-0.151901 16.8385 0.0294682 17.4862 0.543594 17.7741C17.0972 27.0497 34.9501 20.4372 43.8725 3.9822C44.1518 3.46938 43.9569 2.82153 43.4373 2.54263C42.9177 2.27273 42.2694 2.46176 41.9901 2.97457Z" fill="#222021"/>
<path d="M14.5909 9.343C16.3104 9.343 17.7043 7.96 17.7043 6.25397C17.7043 4.54793 16.3104 3.16494 14.5909 3.16494C12.8715 3.16494 11.4776 4.54793 11.4776 6.25397C11.4776 7.96 12.8715 9.343 14.5909 9.343Z" fill="#222021"/>
<path d="M27.4796 6.05731C29.1655 6.05731 30.5321 4.70135 30.5321 3.02865C30.5321 1.35596 29.1655 0 27.4796 0C25.7938 0 24.4271 1.35596 24.4271 3.02865C24.4271 4.70135 25.7938 6.05731 27.4796 6.05731Z" fill="#222021"/>
</svg>
