<svg width="260" height="16" viewBox="0 0 260 16" fill="none" xmlns="http://www.w3.org/2000/svg">
<path fill-rule="evenodd" clip-rule="evenodd" d="M86.1954 1.41336C57.524 1.08181 28.7356 2.29346 0.983915 7.38116C0.488778 7.47158 0.28323 7.64942 0.242719 7.69011C0.00565349 7.93123 -0.0198975 8.18742 0.0101108 8.3984C0.0281158 8.5265 0.149702 9.06751 0.814386 9.12327C1.27351 9.16094 4.53236 8.89722 5.78971 8.82941C11.7088 8.51143 17.616 8.05782 23.5202 7.53337C36.9069 6.34885 50.2755 5.32408 63.6832 4.39124C71.2108 3.86679 78.7414 3.43276 86.2675 3.0771C104.373 3.28959 122.433 4.11846 140.156 4.97445C133.112 5.40998 126.639 5.85153 121.272 6.13787C112.222 6.62012 103.188 7.18976 94.1552 7.94026C89.5144 8.32455 84.8796 8.74201 80.2478 9.23481C79.7346 9.29057 78.5658 9.34783 78.0002 9.41564C77.7601 9.44277 77.5861 9.48648 77.5081 9.51662C77.0189 9.7065 76.9574 10.0953 76.9514 10.2912C76.9484 10.4103 76.9889 11.0598 77.8141 11.1864C116.184 17.1271 156.215 10.2159 194.723 15.9908C195.175 16.0586 195.598 15.7451 195.666 15.29C195.733 14.8364 195.421 14.4114 194.968 14.3436C158.7 8.90475 121.08 14.7204 84.7656 10.451C87.939 10.142 91.1138 9.86322 94.2917 9.59949C103.308 8.8505 112.325 8.28237 121.361 7.80012C130.453 7.31636 142.745 6.37145 155.611 5.77618C166.652 6.39406 177.688 7.08729 188.731 7.67502C193.39 7.92218 198.05 8.12714 202.707 8.37881C204.622 8.48129 209.548 8.91078 210.262 8.75104C210.817 8.62596 210.95 8.22661 210.983 8.02617C211.018 7.80916 210.997 7.53939 210.745 7.28169C210.667 7.20031 210.433 7.03153 209.953 6.89289C196.967 3.15698 175.703 3.21575 155.788 4.11846C151.504 3.87733 147.22 3.64827 142.935 3.4418C133.125 2.96709 123.208 2.49087 113.233 2.11562C141.343 1.41787 169.467 1.61831 197.598 2.12316C209.409 2.33565 241.247 3.61663 253.786 4.7484C253.633 4.90664 253.543 5.12666 253.553 5.36627C253.574 5.82441 253.963 6.18007 254.42 6.15897C257.007 6.03841 258.503 5.88469 259.096 5.72646C259.465 5.6285 259.666 5.47177 259.759 5.36929C259.987 5.12214 260.029 4.85689 259.984 4.60522C259.955 4.44849 259.885 4.27669 259.723 4.11846C259.615 4.00995 259.351 3.84419 258.901 3.73116C253.972 2.49992 211.692 0.711074 197.628 0.457894C160.464 -0.208209 123.316 -0.343828 86.1954 1.41336ZM199.9 6.56435C192.638 5.57424 184.125 5.22612 175.244 5.24872C179.767 5.51245 184.293 5.77016 188.819 6.01128C192.512 6.2087 196.206 6.37748 199.9 6.56435ZM51.944 3.56388C42.4164 4.26917 32.8992 5.03172 23.3746 5.87565C22.2748 5.9721 21.1765 6.06704 20.0767 6.16048C30.6096 4.86444 41.2521 4.0401 51.944 3.56388Z" fill="#222021"/>
</svg>
